<svg width="1024" height="1024" viewBox="0 0 1024 1024" fill="none" xmlns="http://www.w3.org/2000/svg">
<style>
path {
    fill: black;
}
@media (prefers-color-scheme: dark) {
    path {
        fill: white;
    }
}
</style>
<path d="M415.875 796V547.172H190.484V796H104.156V226.469H190.484V470.609H415.875V226.469H502.203V796H415.875ZM615.484 796V226.469H697.125V433.5C711.969 419.177 728.245 407.458 745.953 398.344C762.359 389.75 780.979 385.453 801.812 385.453C851.552 386.755 887.88 404.464 910.797 438.578C921.995 451.339 929.677 468.135 933.844 488.969C937.75 509.542 939.703 544.177 939.703 592.875C939.703 640.792 937.75 675.167 933.844 696C929.677 717.875 921.995 735.193 910.797 747.953C899.599 763.578 884.885 776.078 866.656 785.453C848.688 795.089 827.073 800.167 801.812 800.688C759.104 799.646 724.208 783.891 697.125 753.422V796H615.484ZM777.203 467.094C758.974 467.094 744.521 470.87 733.844 478.422C722.646 485.974 714.443 495.87 709.234 508.109C704.286 520.349 701.031 533.63 699.469 547.953C697.906 562.276 697.125 577.25 697.125 592.875C697.125 607.198 697.906 621.781 699.469 636.625C701.031 651.729 704.286 665.401 709.234 677.641C714.443 689.88 722.646 699.776 733.844 707.328C744.521 715.141 758.974 719.047 777.203 719.047C796.474 719.047 811.708 715.401 822.906 708.109C834.104 700.557 842.047 690.922 846.734 679.203C851.943 666.964 855.458 653.161 857.281 637.797C857.802 623.214 858.062 608.24 858.062 592.875C858.062 576.729 857.802 560.974 857.281 545.609C855.458 531.286 851.943 518.005 846.734 505.766C842.047 493.526 834.104 483.891 822.906 476.859C811.708 470.349 796.474 467.094 777.203 467.094Z" fill="currentColor"/>
</svg>
